<svg width="32" height="32" viewBox="0 0 32 32" fill="none" xmlns="http://www.w3.org/2000/svg">
    <rect width="32" height="32" rx="5" fill="white" />
    <path
        d="M9.04248 23.166C8.07406 23.166 7.27718 22.7537 6.65186 21.9292C6.02653 21.1047 5.71387 19.8983 5.71387 18.3101C5.71387 16.7052 6.03483 15.4906 6.67676 14.666C7.31868 13.8415 8.14876 13.4292 9.16699 13.4292C9.58757 13.4292 9.95003 13.4901 10.2544 13.6118C10.5588 13.7336 10.8216 13.8996 11.043 14.1099C11.2699 14.3146 11.4663 14.547 11.6323 14.8071H11.6987C11.66 14.5692 11.624 14.2427 11.5908 13.8276C11.5576 13.4071 11.541 12.9976 11.541 12.5991V10.084H14.8115V23H12.3628L11.6655 21.813H11.541C11.3916 22.062 11.2035 22.2889 10.9766 22.4937C10.7552 22.6984 10.484 22.8617 10.1631 22.9834C9.84766 23.1051 9.47412 23.166 9.04248 23.166ZM10.3706 20.6011C10.8908 20.6011 11.256 20.4378 11.4663 20.1113C11.6821 19.7793 11.7983 19.2757 11.8149 18.6006V18.3433C11.8149 17.6017 11.7098 17.0345 11.4995 16.6416C11.2948 16.2432 10.9074 16.0439 10.3374 16.0439C9.95003 16.0439 9.62907 16.2321 9.37451 16.6084C9.11995 16.9847 8.99268 17.5685 8.99268 18.3599C8.99268 19.1401 9.11995 19.7101 9.37451 20.0698C9.6346 20.424 9.96663 20.6011 10.3706 20.6011ZM19.9829 23.166C19.0145 23.166 18.2176 22.7537 17.5923 21.9292C16.967 21.1047 16.6543 19.8983 16.6543 18.3101C16.6543 16.7052 16.9753 15.4906 17.6172 14.666C18.2591 13.8415 19.0892 13.4292 20.1074 13.4292C20.528 13.4292 20.8905 13.4901 21.1948 13.6118C21.4992 13.7336 21.762 13.8996 21.9834 14.1099C22.2103 14.3146 22.4067 14.547 22.5728 14.8071H22.6392C22.6004 14.5692 22.5645 14.2427 22.5312 13.8276C22.498 13.4071 22.4814 12.9976 22.4814 12.5991V10.084H25.752V23H23.3032L22.606 21.813H22.4814C22.332 22.062 22.1439 22.2889 21.917 22.4937C21.6956 22.6984 21.4245 22.8617 21.1035 22.9834C20.7881 23.1051 20.4146 23.166 19.9829 23.166ZM21.311 20.6011C21.8312 20.6011 22.1965 20.4378 22.4067 20.1113C22.6226 19.7793 22.7388 19.2757 22.7554 18.6006V18.3433C22.7554 17.6017 22.6502 17.0345 22.4399 16.6416C22.2352 16.2432 21.8478 16.0439 21.2778 16.0439C20.8905 16.0439 20.5695 16.2321 20.3149 16.6084C20.0604 16.9847 19.9331 17.5685 19.9331 18.3599C19.9331 19.1401 20.0604 19.7101 20.3149 20.0698C20.575 20.424 20.9071 20.6011 21.311 20.6011Z"
        fill="black" />
</svg>
    